<?xml version="1.0" encoding="UTF-8"?>
<!DOCTYPE svg PUBLIC "-//W3C//DTD SVG 1.1//EN" "http://www.w3.org/Graphics/SVG/1.1/DTD/svg11.dtd">
<svg xmlns="http://www.w3.org/2000/svg" version="1.1" width="32px" height="32px" style="shape-rendering:geometricPrecision; text-rendering:geometricPrecision; image-rendering:optimizeQuality; fill-rule:evenodd; clip-rule:evenodd" xmlns:xlink="http://www.w3.org/1999/xlink">
<g><path style="opacity:0.008" fill="#8e00b8" d="M 7.5,1.5 C 8.83333,2.16667 8.83333,2.16667 7.5,1.5 Z"/></g>
<g><path style="opacity:0.008" fill="#61009f" d="M 22.5,1.5 C 23.8333,2.16667 23.8333,2.16667 22.5,1.5 Z"/></g>
<g><path style="opacity:0.777" fill="#c024dd" d="M 23.5,3.5 C 18.6946,4.48717 13.6946,4.82051 8.5,4.5C 7.53178,6.60737 7.19845,8.9407 7.5,11.5C 7.16667,11.5 6.83333,11.5 6.5,11.5C 6.5,11.1667 6.5,10.8333 6.5,10.5C 6.5,8.16667 6.5,5.83333 6.5,3.5C 12.1733,2.24836 17.84,2.24836 23.5,3.5 Z"/></g>
<g><path style="opacity:1" fill="#65009d" d="M 23.5,3.5 C 24.404,4.20895 24.7373,5.20895 24.5,6.5C 19.1667,6.5 13.8333,6.5 8.5,6.5C 8.5,5.83333 8.5,5.16667 8.5,4.5C 13.6946,4.82051 18.6946,4.48717 23.5,3.5 Z"/></g>
<g><path style="opacity:0.012" fill="#821db1" d="M 25.5,4.5 C 26.2344,5.87753 26.9011,7.37753 27.5,9C 27.1667,9.16667 26.8333,9.33333 26.5,9.5C 25.5481,7.95467 25.2148,6.28801 25.5,4.5 Z"/></g>
<g><path style="opacity:0.012" fill="#aa21cb" d="M 4.5,4.5 C 5.78786,6.03479 5.78786,7.70145 4.5,9.5C 4.19283,8.11252 4.19283,6.44585 4.5,4.5 Z"/></g>
<g><path style="opacity:0.995" fill="#6900a8" d="M 8.5,6.5 C 13.8333,6.5 19.1667,6.5 24.5,6.5C 24.5,7.16667 24.5,7.83333 24.5,8.5C 19.2197,7.33893 13.8864,7.33893 8.5,8.5C 8.5,7.83333 8.5,7.16667 8.5,6.5 Z"/></g>
<g><path style="opacity:1" fill="#7401b7" d="M 24.5,8.5 C 24.5,9.16667 24.5,9.83333 24.5,10.5C 24.5,11.1667 24.1667,11.5 23.5,11.5C 23.5,11.1667 23.5,10.8333 23.5,10.5C 18.5,9.83333 13.5,9.16667 8.5,8.5C 13.8864,7.33893 19.2197,7.33893 24.5,8.5 Z"/></g>
<g><path style="opacity:0.998" fill="#7d00c1" d="M 8.5,4.5 C 8.5,5.16667 8.5,5.83333 8.5,6.5C 8.5,7.16667 8.5,7.83333 8.5,8.5C 13.5,9.16667 18.5,9.83333 23.5,10.5C 18.7682,10.3776 14.1016,10.8776 9.5,12C 8.74756,12.6708 8.41423,13.5041 8.5,14.5C 8.5,15.1667 8.16667,15.5 7.5,15.5C 7.5,14.1667 7.5,12.8333 7.5,11.5C 7.19845,8.9407 7.53178,6.60737 8.5,4.5 Z"/></g>
<g><path style="opacity:0.999" fill="#8300cc" d="M 23.5,10.5 C 23.5,10.8333 23.5,11.1667 23.5,11.5C 23.5,12.8333 23.5,14.1667 23.5,15.5C 22.8333,15.5 22.5,15.1667 22.5,14.5C 20.9522,13.2057 18.9522,12.5391 16.5,12.5C 14.0478,12.5391 12.0478,13.2057 10.5,14.5C 9.83333,14.5 9.16667,14.5 8.5,14.5C 8.41423,13.5041 8.74756,12.6708 9.5,12C 14.1016,10.8776 18.7682,10.3776 23.5,10.5 Z"/></g>
<g><path style="opacity:0.999" fill="#8c00d5" d="M 22.5,14.5 C 18.5,14.5 14.5,14.5 10.5,14.5C 12.0478,13.2057 14.0478,12.5391 16.5,12.5C 18.9522,12.5391 20.9522,13.2057 22.5,14.5 Z"/></g>
<g><path style="opacity:1" fill="#cd17ef" d="M 8.5,14.5 C 9.16667,14.5 9.83333,14.5 10.5,14.5C 14.5,14.5 18.5,14.5 22.5,14.5C 22.5,15.1667 22.8333,15.5 23.5,15.5C 23.5,15.8333 23.5,16.1667 23.5,16.5C 18.1667,16.5 12.8333,16.5 7.5,16.5C 7.5,16.1667 7.5,15.8333 7.5,15.5C 8.16667,15.5 8.5,15.1667 8.5,14.5 Z"/></g>
<g><path style="opacity:1" fill="#a907d9" d="M 7.5,16.5 C 12.8333,16.5 18.1667,16.5 23.5,16.5C 23.5,17.1667 23.5,17.8333 23.5,18.5C 17.7291,19.1128 12.3958,18.4461 7.5,16.5 Z"/></g>
<g><path style="opacity:0.004" fill="#d277e0" d="M 1.5,21.5 C 0.359163,18.3601 0.192496,15.0267 1,11.5C 1.49834,14.8168 1.66501,18.1501 1.5,21.5 Z"/></g>
<g><path style="opacity:0.961" fill="#d378d9" d="M 6.5,10.5 C 6.5,10.8333 6.5,11.1667 6.5,11.5C 6.5,11.8333 6.5,12.1667 6.5,12.5C 5.5,12.5 4.5,12.5 3.5,12.5C 3.78449,15.2538 4.45115,17.9205 5.5,20.5C 6.10667,20.3764 6.44001,20.0431 6.5,19.5C 7.16667,19.5 7.83333,19.5 8.5,19.5C 13.3165,20.3261 18.3165,20.8261 23.5,21C 17.8333,21.3333 12.1667,21.6667 6.5,22C 13.4921,22.4996 20.4921,22.6663 27.5,22.5C 27.5,23.5 27.5,24.5 27.5,25.5C 27.1667,25.5 26.8333,25.5 26.5,25.5C 26.6716,24.5084 26.3382,23.8417 25.5,23.5C 24.1667,23.5 22.8333,23.5 21.5,23.5C 17.5,23.5 13.5,23.5 9.5,23.5C 8.16667,23.5 6.83333,23.5 5.5,23.5C 4.22235,23.2178 3.22235,22.5511 2.5,21.5C 2.33499,18.1501 2.50166,14.8168 3,11.5C 4.01127,10.6634 5.17793,10.33 6.5,10.5 Z"/></g>
<g><path style="opacity:1" fill="#9811c5" d="M 6.5,11.5 C 6.83333,11.5 7.16667,11.5 7.5,11.5C 7.5,12.8333 7.5,14.1667 7.5,15.5C 7.5,15.8333 7.5,16.1667 7.5,16.5C 12.3958,18.4461 17.7291,19.1128 23.5,18.5C 18.6946,19.4872 13.6946,19.8205 8.5,19.5C 7.83333,19.5 7.16667,19.5 6.5,19.5C 6.5,17.1667 6.5,14.8333 6.5,12.5C 6.5,12.1667 6.5,11.8333 6.5,11.5 Z"/></g>
<g><path style="opacity:0.004" fill="#be6cd7" d="M 29.5,11.5 C 30.6378,14.3035 30.8045,17.3035 30,20.5C 29.502,17.5184 29.3354,14.5184 29.5,11.5 Z"/></g>
<g><path style="opacity:0.996" fill="#c45dde" d="M 6.5,12.5 C 6.5,14.8333 6.5,17.1667 6.5,19.5C 6.44001,20.0431 6.10667,20.3764 5.5,20.5C 4.45115,17.9205 3.78449,15.2538 3.5,12.5C 4.5,12.5 5.5,12.5 6.5,12.5 Z"/></g>
<g><path style="opacity:0.98" fill="#c66cde" d="M 24.5,10.5 C 25.8221,10.33 26.9887,10.6634 28,11.5C 28.4983,14.8168 28.665,18.1501 28.5,21.5C 27.8333,21.5 27.5,21.8333 27.5,22.5C 20.4921,22.6663 13.4921,22.4996 6.5,22C 12.1667,21.6667 17.8333,21.3333 23.5,21C 18.3165,20.8261 13.3165,20.3261 8.5,19.5C 13.6946,19.8205 18.6946,19.4872 23.5,18.5C 23.5,17.8333 23.5,17.1667 23.5,16.5C 23.5,16.1667 23.5,15.8333 23.5,15.5C 23.5,14.1667 23.5,12.8333 23.5,11.5C 24.1667,11.5 24.5,11.1667 24.5,10.5 Z"/></g>
<g><path style="opacity:0.004" fill="#d674ed" d="M 28.5,21.5 C 29.8333,22.1667 29.8333,22.1667 28.5,21.5 Z"/></g>
<g><path style="opacity:0.004" fill="#b55bc1" d="M 1.5,21.5 C 1.83333,21.5 2.16667,21.5 2.5,21.5C 2.16667,24.1667 1.83333,24.1667 1.5,21.5 Z"/></g>
<g><path style="opacity:0.984" fill="#cd7521" d="M 21.5,24.5 C 21.5,24.1667 21.5,23.8333 21.5,23.5C 22.8333,23.5 24.1667,23.5 25.5,23.5C 25.3284,24.4916 25.6618,25.1583 26.5,25.5C 26.719,26.675 26.3857,27.675 25.5,28.5C 24.4822,27.8075 23.4822,27.1408 22.5,26.5C 22.6716,25.5084 22.3382,24.8417 21.5,24.5 Z"/></g>
<g><path style="opacity:0.016" fill="#de8d3c" d="M 4.5,25.5 C 3.83333,24.1667 3.83333,24.1667 4.5,25.5 Z"/></g>
<g><path style="opacity:1" fill="#cb7825" d="M 5.5,23.5 C 6.83333,23.5 8.16667,23.5 9.5,23.5C 9.5,23.8333 9.5,24.1667 9.5,24.5C 8.66175,24.8417 8.32842,25.5084 8.5,26.5C 7.51776,27.1408 6.51776,27.8075 5.5,28.5C 4.61432,27.675 4.28099,26.675 4.5,25.5C 5.33825,25.1583 5.67158,24.4916 5.5,23.5 Z"/></g>
<g><path style="opacity:0.008" fill="#e37894" d="M 9.5,24.5 C 13.5,24.5 17.5,24.5 21.5,24.5C 21.5,25.1667 21.5,25.8333 21.5,26.5C 17.5,25.1667 13.5,25.1667 9.5,26.5C 9.5,25.8333 9.5,25.1667 9.5,24.5 Z"/></g>
<g><path style="opacity:0.004" fill="#d48b28" d="M 2.5,26.5 C 3.83333,27.1667 3.83333,27.1667 2.5,26.5 Z"/></g>
<g><path style="opacity:0.004" fill="#df7b09" d="M 8.5,26.5 C 8.83333,26.5 9.16667,26.5 9.5,26.5C 9.31468,27.1701 8.98135,27.1701 8.5,26.5 Z"/></g>
<g><path style="opacity:0.008" fill="#dc7c0e" d="M 21.5,26.5 C 21.8333,26.5 22.1667,26.5 22.5,26.5C 22.3147,27.1701 21.9813,27.1701 21.5,26.5 Z"/></g>
<g><path style="opacity:0.004" fill="#cd822d" d="M 27.5,25.5 C 28.525,25.8966 28.6917,26.5632 28,27.5C 27.5357,26.9056 27.369,26.2389 27.5,25.5 Z"/></g>
</svg>
